<svg width="118" height="43" viewBox="0 0 118 43" fill="none" xmlns="http://www.w3.org/2000/svg">
<path d="M16.896 20.536V12.472L14.592 12.216V11.96H21.984V12.216L19.36 12.472V20.824C18.336 21.7627 17.088 22.4453 15.616 22.872C14.144 23.2987 12.8533 23.512 11.744 23.512C9.888 23.512 8.18133 23 6.624 21.976C5.088 20.952 3.872 19.5653 2.976 17.816C2.10133 16.0453 1.664 14.0933 1.664 11.96C1.664 9.848 2.10133 7.90667 2.976 6.136C3.872 4.36533 5.088 2.968 6.624 1.944C8.16 0.919999 9.84533 0.407999 11.68 0.407999C12.6187 0.407999 13.5787 0.567999 14.56 0.887999C15.5627 1.18667 16.672 1.66667 17.888 2.328L18.656 0.792H19.072L19.392 7.992L18.944 8.12C18.6453 6.47733 18.176 5.12267 17.536 4.056C16.896 3.01067 16.0747 2.21067 15.072 1.656C14.0907 1.08 12.992 0.792 11.776 0.792C9.51467 0.792 7.776 1.76267 6.56 3.704C5.344 5.64533 4.736 8.39733 4.736 11.96C4.736 15.5227 5.344 18.2747 6.56 20.216C7.776 22.1573 9.504 23.128 11.744 23.128C12.8107 23.128 13.8027 22.8933 14.72 22.424C15.6373 21.9333 16.3627 21.304 16.896 20.536ZM24.1418 21.464C24.1418 20.9947 24.2911 20.6107 24.5898 20.312C24.9098 19.992 25.3151 19.832 25.8058 19.832C26.2964 19.832 26.6911 19.992 26.9898 20.312C27.2884 20.6107 27.4378 20.9947 27.4378 21.464C27.4378 21.9333 27.2884 22.328 26.9898 22.648C26.6911 22.968 26.2964 23.128 25.8058 23.128C25.3151 23.128 24.9098 22.968 24.5898 22.648C24.2911 22.328 24.1418 21.9333 24.1418 21.464ZM50.204 22.744V23H46.908C46.396 23 46.012 22.9253 45.756 22.776C45.5 22.6267 45.2333 22.3387 44.956 21.912L40.06 14.008C39.7613 13.5173 39.5053 13.2187 39.292 13.112C39.1 12.984 38.748 12.92 38.236 12.92H35.868V22.488L38.652 22.744V23H30.78V22.744L33.404 22.488V1.432L30.78 1.176V0.919998H38.876C41.3933 0.919998 43.3133 1.432 44.636 2.456C45.9587 3.45867 46.62 4.92 46.62 6.84C46.62 8.33333 46.2147 9.56 45.404 10.52C44.5933 11.48 43.42 12.1413 41.884 12.504H41.916L47.772 21.656C48.0493 22.0827 48.316 22.3707 48.572 22.52C48.8493 22.6693 49.244 22.744 49.756 22.744H50.204ZM35.868 1.304V12.44H38.78C40.4867 12.44 41.7453 11.992 42.556 11.096C43.388 10.1787 43.804 8.78133 43.804 6.904C43.804 5.00533 43.388 3.59733 42.556 2.68C41.724 1.76267 40.4653 1.304 38.78 1.304H35.868ZM51.2043 21.464C51.2043 20.9947 51.3536 20.6107 51.6523 20.312C51.9723 19.992 52.3776 19.832 52.8683 19.832C53.3589 19.832 53.7536 19.992 54.0523 20.312C54.3509 20.6107 54.5003 20.9947 54.5003 21.464C54.5003 21.9333 54.3509 22.328 54.0523 22.648C53.7536 22.968 53.3589 23.128 52.8683 23.128C52.3776 23.128 51.9723 22.968 51.6523 22.648C51.3536 22.328 51.2043 21.9333 51.2043 21.464ZM85.5095 0.919998V1.176L83.7175 1.336C83.1415 1.37867 82.7468 1.48533 82.5335 1.656C82.3202 1.80533 82.1388 2.12533 81.9895 2.616L75.6215 23.512H75.1095L69.5095 7.576L64.6455 23.512H64.1335L56.3575 1.432L53.7335 1.176V0.919998H61.7335V1.176L58.9495 1.432L65.2535 19.416H65.3815L69.2215 6.808L67.3335 1.432L64.7095 1.176V0.919998H72.7095V1.176L69.9255 1.432L76.2295 19.416H76.3575L81.4775 2.616C81.5415 2.38133 81.5735 2.17867 81.5735 2.008C81.5735 1.77333 81.5095 1.61333 81.3815 1.528C81.2535 1.42133 81.0082 1.35733 80.6455 1.336L78.6935 1.176V0.919998H85.5095ZM84.7043 21.464C84.7043 20.9947 84.8536 20.6107 85.1523 20.312C85.4723 19.992 85.8776 19.832 86.3683 19.832C86.8589 19.832 87.2536 19.992 87.5523 20.312C87.8509 20.6107 88.0003 20.9947 88.0003 21.464C88.0003 21.9333 87.8509 22.328 87.5523 22.648C87.2536 22.968 86.8589 23.128 86.3683 23.128C85.8776 23.128 85.4723 22.968 85.1523 22.648C84.8536 22.328 84.7043 21.9333 84.7043 21.464ZM114.031 1.432V22.488L116.815 22.744V23H108.943V22.744L111.567 22.488V3H111.439L103.727 23.512H103.407L94.7985 2.968H94.6705V21.048C94.6705 21.56 94.7345 21.9227 94.8625 22.136C94.9905 22.328 95.2465 22.4453 95.6305 22.488L97.9025 22.744V23H90.8945V22.744L93.1985 22.488C93.5825 22.4453 93.8385 22.328 93.9665 22.136C94.0945 21.9227 94.1585 21.56 94.1585 21.048V1.848C94.0092 1.592 93.8172 1.42133 93.5825 1.336C93.3692 1.22933 93.0492 1.176 92.6225 1.176H91.1505V0.919998H96.6225L104.495 19.704H104.623L111.663 0.919998H116.815V1.176L114.031 1.432Z" fill="black"/>
<path d="M3.9505 38.063C3.57483 38.063 3.22833 37.9965 2.911 37.8635C2.59367 37.7305 2.31833 37.5438 2.085 37.3035C1.85167 37.0608 1.66967 36.775 1.539 36.446C1.41067 36.1147 1.3465 35.7507 1.3465 35.354C1.3465 34.9597 1.4095 34.5992 1.5355 34.2725C1.6615 33.9458 1.84117 33.6635 2.0745 33.4255C2.30783 33.1875 2.58667 33.0032 2.911 32.8725C3.23533 32.7395 3.59583 32.673 3.9925 32.673C4.39383 32.673 4.7415 32.7407 5.0355 32.876C5.33183 33.0113 5.57333 33.2003 5.76 33.443C5.94667 33.6833 6.07733 33.9645 6.152 34.2865H6.2605L6.1695 34.801C6.05517 34.2177 5.80783 33.7708 5.4275 33.4605C5.04717 33.1478 4.57 32.9915 3.996 32.9915C3.53167 32.9915 3.12567 33.0918 2.778 33.2925C2.43267 33.4908 2.16433 33.7673 1.973 34.122C1.78167 34.4767 1.686 34.8873 1.686 35.354C1.686 35.7063 1.742 36.0283 1.854 36.32C1.96833 36.6117 2.127 36.8648 2.33 37.0795C2.533 37.2918 2.77333 37.4563 3.051 37.573C3.331 37.6873 3.63667 37.7445 3.968 37.7445C4.36 37.7445 4.7135 37.6617 5.0285 37.496C5.34583 37.3303 5.60717 37.0982 5.8125 36.7995C6.01783 36.4985 6.15083 36.145 6.2115 35.739L6.4565 35.8055C6.39117 36.2582 6.24417 36.6537 6.0155 36.992C5.78683 37.328 5.49517 37.5905 5.1405 37.7795C4.78583 37.9685 4.38917 38.063 3.9505 38.063ZM6.313 38L6.201 36.341V35.5255H6.523V38H6.313ZM4.4265 35.802V35.5045H7.223V35.802H4.4265ZM6.1695 34.801V32.736H6.4845V34.801H6.1695ZM12.7399 35.2V35.487H10.3494V35.2H12.7399ZM13.8179 36.5755H14.1329V38H9.24687V37.706H10.1744V33.03H9.24687V32.736H14.0699V34.1605H13.7549V33.03H10.4894V37.706H13.8179V36.5755ZM21.4213 32.736V34.332H21.1028V33.03H19.1393V37.706H20.0633V38H17.8898V37.706H18.8208V33.03H16.8643V34.332H16.5423V32.736H21.4213ZM30.6278 35.284C30.8284 35.2933 30.9836 35.3412 31.0933 35.4275C31.2053 35.5115 31.2893 35.6317 31.3453 35.788L32.0348 37.706H32.6403V38H31.8073L31.0863 35.97C31.0233 35.7903 30.9451 35.6655 30.8518 35.5955C30.7584 35.5232 30.6243 35.487 30.4493 35.487H30.2078L30.6278 35.284ZM29.4588 33.03V32.736H30.4248C31.0221 32.736 31.4701 32.8538 31.7688 33.0895C32.0674 33.3252 32.2168 33.6425 32.2168 34.0415C32.2168 34.2818 32.1631 34.4965 32.0558 34.6855C31.9484 34.8745 31.7991 35.0308 31.6078 35.1545C31.4188 35.2758 31.1983 35.354 30.9463 35.389V35.452L30.4773 35.487H28.7623V35.2H30.4038C30.7281 35.2 30.9999 35.1522 31.2193 35.0565C31.4409 34.9608 31.6089 34.8278 31.7233 34.6575C31.8376 34.4872 31.8948 34.29 31.8948 34.066C31.8948 33.7393 31.7676 33.485 31.5133 33.303C31.2589 33.121 30.8914 33.03 30.4108 33.03H29.4588ZM27.5653 33.03V32.736H29.7353V33.03H28.8078V37.706H29.7353V38H27.5653V37.706H28.4928V33.03H27.5653ZM38.3334 35.2V35.487H35.9429V35.2H38.3334ZM39.4114 36.5755H39.7264V38H34.8404V37.706H35.7679V33.03H34.8404V32.736H39.6634V34.1605H39.3484V33.03H36.0829V37.706H39.4114V36.5755ZM46.3323 35.928V36.215H43.4728V35.928H46.3323ZM47.1688 37.706H47.7288V38H45.4853V37.706H46.8328L44.8448 32.9775L45.0548 33.1245H44.7293L44.9358 32.9775L42.9443 37.706H44.2953V38H42.0658V37.706H42.6223L44.7153 32.736H45.0793L47.1688 37.706ZM51.8434 38V37.706H52.3999C52.8899 37.706 53.3157 37.6068 53.6774 37.4085C54.0414 37.2078 54.3225 36.9313 54.5209 36.579C54.7215 36.2243 54.8219 35.816 54.8219 35.354C54.8219 34.8967 54.7215 34.493 54.5209 34.143C54.3225 33.793 54.0414 33.52 53.6774 33.324C53.3157 33.128 52.8899 33.03 52.3999 33.03H51.8504V32.736H52.3999C52.9552 32.736 53.4394 32.848 53.8524 33.072C54.2677 33.2937 54.5897 33.6017 54.8184 33.996C55.047 34.388 55.1614 34.8407 55.1614 35.354C55.1614 35.8743 55.047 36.334 54.8184 36.733C54.5897 37.1297 54.2677 37.44 53.8524 37.664C53.4394 37.888 52.9552 38 52.3999 38H51.8434ZM49.8554 38V37.706H50.7829V33.03H49.8554V32.736H51.9834V33.03H51.0979V37.706H51.9834V38H49.8554ZM61.8185 33.03L59.771 35.6235H59.4875L57.4365 33.03H56.8415V32.736H58.952V33.03H57.825L59.7325 35.4415L59.4665 35.3155H59.7885L59.561 35.4415L61.4615 33.03H60.2995V32.736H62.4135V33.03H61.8185ZM59.7885 35.3855V37.706H60.7125V38H58.539V37.706H59.4665V35.3855H59.7885ZM74.8324 32.736H76.9289V33.03H76.3759L74.6959 38H74.3074L72.5749 33.03L72.8549 33.436H72.5469L72.8304 33.03L71.0769 38H70.6919L69.0154 33.03H68.4659V32.736H70.5589V33.03H69.3444L71.0104 38L70.7199 37.601H71.0419L70.7654 38L72.5294 33.03H71.5109V32.736H73.8944V33.03H72.8899L74.6364 38L74.3424 37.601H74.6644L74.3914 38L76.0714 33.03H74.8324V32.736ZM79.0514 33.03V32.736H81.2214V33.03H80.2939V37.706H81.2214V38H79.0514V37.706H79.9789V33.03H79.0514ZM88.3 32.736V34.332H87.9815V33.03H86.018V37.706H86.942V38H84.7685V37.706H85.6995V33.03H83.743V34.332H83.421V32.736H88.3ZM95.3455 35.2V35.487H91.6005V35.2H95.3455ZM90.498 33.03V32.736H92.668V33.03H91.7405V37.706H92.668V38H90.498V37.706H91.4255V33.03H90.498ZM94.313 33.03V32.736H96.4795V33.03H95.5555V37.706H96.4795V38H94.313V37.706H95.2405V33.03H94.313ZM106.071 38L103.918 32.9915L104.149 32.736L106.284 37.7095H106.19L108.325 32.736L108.535 32.9915L106.382 38H106.071ZM102.683 38V37.706H103.61V33.03H102.683V32.736H104.146L104.121 33.03H103.908V37.706H104.86V38H102.683ZM107.586 38V37.706H108.545V33.03H108.314L108.321 32.736H109.788V33.03H108.86V37.706H109.788V38H107.586ZM115.618 35.2V35.487H113.228V35.2H115.618ZM116.696 36.5755H117.011V38H112.125V37.706H113.053V33.03H112.125V32.736H116.948V34.1605H116.633V33.03H113.368V37.706H116.696V36.5755Z" fill="black"/>
</svg>
